<svg xmlns="http://www.w3.org/2000/svg" xmlns:xlink="http://www.w3.org/1999/xlink" width="45" height="32" viewBox="0 0 45 32"><defs><path id="mi2va" d="M1044.04 2954.36a2.77 2.77 0 0 1-2.75 2.78 2.77 2.77 0 0 1-2.75-2.78 2.77 2.77 0 0 1 2.75-2.79c.51 0 .93.42.93.94s-.42.94-.93.94c-.5 0-.9.4-.9.9s.4.91.9.91.9-.4.9-.9c0-.52.4-.94.92-.94.51 0 .93.42.93.94zm26.47 0a2.77 2.77 0 0 1-2.75 2.78 2.77 2.77 0 0 1-2.75-2.78 2.77 2.77 0 0 1 2.75-2.79c.51 0 .93.42.93.94s-.42.94-.93.94c-.5 0-.9.4-.9.9s.4.91.9.91.9-.4.9-.9c0-.52.4-.94.92-.94.51 0 .93.42.93.94zm6.49-12.49v12.49c0 .52-.42.94-.93.94h-2.81a5.6 5.6 0 0 1-5.5 4.7 5.6 5.6 0 0 1-5.5-4.7h-15.48a5.6 5.6 0 0 1-5.49 4.7 5.6 5.6 0 0 1-5.5-4.7h-1.93a1.87 1.87 0 0 1-1.86-1.88v-23.54c0-1.04.83-1.88 1.86-1.88h25.56c1.02 0 1.85.84 1.85 1.88v1.9h7.12c.09 0 .17.02.24.04 2.3.2 3.46 1.4 4.68 3.47l3.56 6.1c.09.15.13.32.13.48zm-3.67 4.04h1.81v-1.85h-.88a.94.94 0 0 0-.93.94zm-1.51-9.48h-6.9v3.77c0 .53.42.96.95.96.06 0 .12 0 .19.02h8.53zm-37.96 16.99h1.93a5.6 5.6 0 0 1 5.5-4.7 5.6 5.6 0 0 1 5.5 4.7h12.63v-23.54h-25.56zm11.15.94a3.74 3.74 0 0 0-3.72-3.77 3.74 3.74 0 0 0-3.72 3.77 3.74 3.74 0 0 0 3.72 3.76 3.74 3.74 0 0 0 3.72-3.76zm26.47 0a3.74 3.74 0 0 0-3.72-3.77 3.74 3.74 0 0 0-3.72 3.77 3.74 3.74 0 0 0 3.72 3.76 3.74 3.74 0 0 0 3.72-3.76zm1.78-.94h1.88v-5.63h-2.73a.93.93 0 0 1-.93-.94V2945c0-.75.3-1.44.77-1.94h-6.38a.92.92 0 0 1-.23-.03 2.83 2.83 0 0 1-2.58-2.83v-4.7c0-.53.42-.95.93-.95h6.48c-.65-.63-1.39-.88-2.57-.88h-6.63v19.75h1a5.6 5.6 0 0 1 5.5-4.7 5.6 5.6 0 0 1 5.49 4.7zm-37.5-20.7c0-.51.4-.93.92-.93h19.91c.51 0 .93.42.93.94s-.42.94-.93.94h-19.9a.93.93 0 0 1-.94-.94z"/></defs><g><g transform="translate(-1032 -2928)"><use fill="#f16d7f" xlink:href="#mi2va"/></g></g></svg>