<svg xmlns="http://www.w3.org/2000/svg" xmlns:xlink="http://www.w3.org/1999/xlink" width="40" height="40" viewBox="0 0 40 40"><defs><path id="9mcaa" d="M1060.09 3106.84c0 3.07-1.59 4.59-3.42 4.59-1.78 0-3.33-1.46-3.35-4.37 0-2.93 1.57-4.56 3.46-4.56 2 0 3.3 1.57 3.3 4.34zm-1.52.1c0-1.78-.51-3.25-1.85-3.25-1.21 0-1.88 1.45-1.88 3.29-.02 1.85.69 3.26 1.88 3.26 1.27 0 1.85-1.39 1.85-3.3zm-11.24-1.53c-1.78 0-3.32-1.46-3.35-4.39 0-2.9 1.57-4.54 3.46-4.54 2 0 3.33 1.57 3.33 4.34 0 3.07-1.59 4.59-3.44 4.59zm.05-1.19c1.27 0 1.85-1.38 1.85-3.3 0-1.78-.51-3.25-1.85-3.25-1.21 0-1.85 1.45-1.85 3.29-.05 1.85.64 3.26 1.85 3.26zm9.47-7.58l-8.42 14.75h-1.23l8.41-14.75zm13.94 14.3l-4.2 1.61.73 4.5-4.5.05-.82 4.49-4.24-1.52-2.29 3.93-3.47-2.9-3.47 2.9-2.3-3.93-4.23 1.52-.82-4.5-4.5-.04.73-4.5-4.2-1.6 2.2-3.98-3.4-2.97 3.4-2.97-2.2-3.98 4.2-1.6-.73-4.5 4.5-.05.82-4.49 4.24 1.52 2.29-3.93 3.47 2.9 3.47-2.9 2.3 3.93 4.23-1.52.82 4.5 4.5.04-.73 4.5 4.2 1.6-2.2 3.98 3.4 2.97-3.4 2.97zm-2.74-1l-1.12-2.02-.76-1.38 1.18-1.03 1.73-1.51-1.73-1.51-1.18-1.03.76-1.38 1.12-2.02-2.13-.8-1.46-.56.26-1.57.37-2.28-2.29-.03-1.56-.01-.28-1.56-.42-2.28-2.15.77-1.47.53-.8-1.36-1.15-2-1.77 1.47-1.2 1.01-1.2-1-1.77-1.48-1.16 2-.8 1.35-1.46-.52-2.15-.77-.42 2.28-.28 1.56-1.56.01-2.29.03.38 2.28.25 1.56-1.46.56-2.13.81 1.12 2.02.76 1.38-1.18 1.03-1.73 1.5 1.73 1.52 1.18 1.03-.76 1.38-1.13 2.01 2.14.81 1.46.56-.26 1.56-.37 2.29 2.28.02 1.56.02.29 1.56.42 2.27 2.15-.76 1.47-.53.79 1.36 1.16 2 1.76-1.48 1.2-1 1.22 1 1.76 1.48 1.16-2 .79-1.36 1.47.53 2.15.77.42-2.28.28-1.56 1.56-.02 2.28-.02-.37-2.28-.25-1.57 1.46-.55z"/></defs><g><g transform="translate(-1032 -3084)"><use fill="#f16d7f" xlink:href="#9mcaa"/></g></g></svg>