<svg xmlns="http://www.w3.org/2000/svg" xmlns:xlink="http://www.w3.org/1999/xlink" width="47" height="35" viewBox="0 0 47 35"><defs><path id="ezioa" d="M1075.02 3251.1a4.56 4.56 0 0 1-3.55 4.4v12.3c0 .1-.03.17-.05.25.03.12.05.25.05.39 0 4.42-17.93 4.55-19.97 4.55-2.04 0-19.97-.13-19.97-4.55 0-.14.02-.27.05-.39-.02-.08-.05-.16-.05-.24v-12.32a4.57 4.57 0 0 1-3.55-4.4 4.6 4.6 0 0 1 4.65-4.54 4.6 4.6 0 0 1 4.65 4.54c0 1.34-.6 2.54-1.56 3.37l5.86 2.06 8.35-9.71a4.55 4.55 0 0 1-3.04-4.25 4.6 4.6 0 0 1 4.64-4.55 4.6 4.6 0 0 1 4.65 4.55c0 1.97-1.3 3.63-3.1 4.26l8.34 9.7 5.87-2.06a4.47 4.47 0 0 1-1.56-3.37 4.6 4.6 0 0 1 4.64-4.54 4.6 4.6 0 0 1 4.65 4.54zm-23.48-6.21a2.36 2.36 0 0 0 2.38-2.33 2.36 2.36 0 0 0-2.38-2.34 2.36 2.36 0 0 0-2.4 2.34 2.36 2.36 0 0 0 2.4 2.33zm-17.75 11.24v9.96c4.89-2.12 16.12-2.2 17.71-2.2 1.6 0 12.82.08 17.7 2.2v-9.95l-7.75 2.73c-.45.15-.95.02-1.25-.34l-8.7-10.12-8.7 10.12c-.3.36-.8.49-1.24.34zm34.28 12.78c.45-.16.79-.32 1-.47-.73-.52-3.07-1.24-6.98-1.74-2.75-.35-6.28-.6-10.59-.6-4.3 0-7.83.25-10.59.6-3.9.5-6.24 1.22-6.97 1.74.2.14.55.3 1 .47 2.3.86 7.86 1.87 16.56 1.87 8.71 0 14.26-1.01 16.57-1.87zm-35.43-15.48a2.36 2.36 0 0 0 2.38-2.34 2.36 2.36 0 0 0-2.38-2.33 2.36 2.36 0 0 0-2.4 2.33 2.36 2.36 0 0 0 2.4 2.34zm40.12-2.34a2.36 2.36 0 0 0-2.39-2.33 2.36 2.36 0 0 0-2.38 2.33 2.36 2.36 0 0 0 2.38 2.34 2.37 2.37 0 0 0 2.4-2.34z"/></defs><g><g transform="translate(-1028 -3238)"><use fill="#f16d7f" xlink:href="#ezioa"/></g></g></svg>